<svg xmlns="http://www.w3.org/2000/svg" viewBox="0 0 512 512" width="512" height="512">
  <defs>
    <linearGradient id="g" x1="0" y1="0" x2="1" y2="1">
      <stop offset="0" stop-color="#7B6FA0"/>
      <stop offset="1" stop-color="#4A3F72"/>
    </linearGradient>
  </defs>
  <rect width="512" height="512" rx="112" fill="url(#g)"/>
  <g fill="#FAF6F0">
    <!-- main pad -->
    <path d="M256 300c-46 0-86 30-86 70 0 26 22 42 50 42 14 0 24-6 36-6s22 6 36 6c28 0 50-16 50-42 0-40-40-70-86-70z"/>
    <!-- toes -->
    <ellipse cx="168" cy="250" rx="30" ry="38"/>
    <ellipse cx="232" cy="214" rx="30" ry="40"/>
    <ellipse cx="280" cy="214" rx="30" ry="40"/>
    <ellipse cx="344" cy="250" rx="30" ry="38"/>
  </g>
</svg>
